<mxfile host="app.diagrams.net" modified="2021-02-01T09:39:23.480Z" agent="5.0 (Windows NT 10.0; Win64; x64) AppleWebKit/537.36 (KHTML, like Gecko) Chrome/88.0.4324.104 Safari/537.36" etag="pb5HfrhLUa0WnTpm_HPI" version="14.2.9" type="github">
  <diagram id="mW1CXpkDc4-1F67w80To" name="Page-1">
    <mxGraphModel dx="1422" dy="882" grid="1" gridSize="10" guides="1" tooltips="1" connect="1" arrows="1" fold="1" page="1" pageScale="1" pageWidth="1169" pageHeight="1654" math="0" shadow="0">
      <root>
        <mxCell id="0" />
        <mxCell id="1" parent="0" />
        <mxCell id="yqDNeAxjPuDPZAOG8qcz-44" value="&lt;font face=&quot;Times New Roman&quot;&gt;&lt;span style=&quot;font-size: 18px&quot;&gt;&lt;b&gt;Preamble&lt;/b&gt;&lt;/span&gt;&lt;/font&gt;" style="rounded=0;whiteSpace=wrap;html=1;" vertex="1" parent="1">
          <mxGeometry x="10" y="80" width="80" height="40" as="geometry" />
        </mxCell>
        <mxCell id="yqDNeAxjPuDPZAOG8qcz-45" value="&lt;font face=&quot;Times New Roman&quot;&gt;&lt;span style=&quot;font-size: 18px&quot;&gt;&lt;b&gt;Access Address&lt;/b&gt;&lt;/span&gt;&lt;/font&gt;" style="rounded=0;whiteSpace=wrap;html=1;" vertex="1" parent="1">
          <mxGeometry x="90" y="80" width="90" height="40" as="geometry" />
        </mxCell>
        <mxCell id="yqDNeAxjPuDPZAOG8qcz-46" value="&lt;font face=&quot;Times New Roman&quot;&gt;&lt;span style=&quot;font-size: 18px&quot;&gt;&lt;b&gt;Protocol Data Unit （&lt;/b&gt;&lt;/span&gt;&lt;b style=&quot;font-size: 18px&quot;&gt;PDU）&lt;/b&gt;&lt;/font&gt;" style="rounded=0;whiteSpace=wrap;html=1;" vertex="1" parent="1">
          <mxGeometry x="180" y="80" width="510" height="40" as="geometry" />
        </mxCell>
        <mxCell id="yqDNeAxjPuDPZAOG8qcz-47" value="&lt;font face=&quot;Times New Roman&quot;&gt;&lt;span style=&quot;font-size: 18px&quot;&gt;&lt;b&gt;CRC&lt;/b&gt;&lt;/span&gt;&lt;/font&gt;" style="rounded=0;whiteSpace=wrap;html=1;" vertex="1" parent="1">
          <mxGeometry x="690" y="80" width="60" height="40" as="geometry" />
        </mxCell>
        <mxCell id="yqDNeAxjPuDPZAOG8qcz-48" value="&lt;font face=&quot;Times New Roman&quot; style=&quot;font-size: 18px&quot;&gt;&lt;b&gt;ATT Handle&lt;/b&gt;&lt;/font&gt;" style="rounded=0;whiteSpace=wrap;html=1;" vertex="1" parent="1">
          <mxGeometry x="360" y="560" width="80" height="40" as="geometry" />
        </mxCell>
        <mxCell id="yqDNeAxjPuDPZAOG8qcz-49" value="&lt;font face=&quot;Times New Roman&quot; style=&quot;font-size: 18px&quot;&gt;&lt;b&gt;ATT Value&lt;/b&gt;&lt;/font&gt;" style="rounded=0;whiteSpace=wrap;html=1;" vertex="1" parent="1">
          <mxGeometry x="440" y="560" width="200" height="40" as="geometry" />
        </mxCell>
        <mxCell id="yqDNeAxjPuDPZAOG8qcz-50" value="Physical Layer" style="text;strokeColor=none;fillColor=none;html=1;fontSize=24;fontStyle=1;verticalAlign=middle;align=center;" vertex="1" parent="1">
          <mxGeometry x="790" y="80" width="100" height="40" as="geometry" />
        </mxCell>
        <mxCell id="yqDNeAxjPuDPZAOG8qcz-53" value="GATT Layer" style="text;strokeColor=none;fillColor=none;html=1;fontSize=24;fontStyle=1;verticalAlign=middle;align=center;" vertex="1" parent="1">
          <mxGeometry x="800" y="560" width="100" height="40" as="geometry" />
        </mxCell>
        <mxCell id="yqDNeAxjPuDPZAOG8qcz-54" value="&lt;span style=&quot;font-weight: normal&quot;&gt;&lt;font style=&quot;font-size: 18px&quot; face=&quot;Times New Roman&quot;&gt;1&lt;/font&gt;&lt;/span&gt;" style="text;strokeColor=none;fillColor=none;html=1;fontSize=24;fontStyle=1;verticalAlign=middle;align=center;" vertex="1" parent="1">
          <mxGeometry x="20" y="50" width="60" height="20" as="geometry" />
        </mxCell>
        <mxCell id="yqDNeAxjPuDPZAOG8qcz-55" value="&lt;span style=&quot;font-weight: 400&quot;&gt;&lt;font style=&quot;font-size: 18px&quot; face=&quot;Times New Roman&quot;&gt;&amp;lt;=20&lt;/font&gt;&lt;/span&gt;" style="text;strokeColor=none;fillColor=none;html=1;fontSize=24;fontStyle=1;verticalAlign=middle;align=center;" vertex="1" parent="1">
          <mxGeometry x="400" y="710" width="60" height="20" as="geometry" />
        </mxCell>
        <mxCell id="yqDNeAxjPuDPZAOG8qcz-56" value="" style="endArrow=none;dashed=1;html=1;entryX=0;entryY=1;entryDx=0;entryDy=0;strokeWidth=2;exitX=0;exitY=0;exitDx=0;exitDy=0;jumpStyle=none;" edge="1" parent="1" source="yqDNeAxjPuDPZAOG8qcz-73" target="yqDNeAxjPuDPZAOG8qcz-46">
          <mxGeometry width="50" height="50" relative="1" as="geometry">
            <mxPoint x="200" y="200" as="sourcePoint" />
            <mxPoint x="600" y="630" as="targetPoint" />
          </mxGeometry>
        </mxCell>
        <mxCell id="yqDNeAxjPuDPZAOG8qcz-58" value="&lt;span style=&quot;font-weight: normal&quot;&gt;&lt;font style=&quot;font-size: 18px&quot; face=&quot;Times New Roman&quot;&gt;1&lt;/font&gt;&lt;/span&gt;" style="text;strokeColor=none;fillColor=none;html=1;fontSize=24;fontStyle=1;verticalAlign=middle;align=center;" vertex="1" parent="1">
          <mxGeometry x="250" y="675" width="60" height="20" as="geometry" />
        </mxCell>
        <mxCell id="yqDNeAxjPuDPZAOG8qcz-60" value="&lt;font face=&quot;Times New Roman&quot;&gt;&lt;span style=&quot;font-size: 18px&quot;&gt;&lt;b&gt;L2CAP Header&lt;/b&gt;&lt;/span&gt;&lt;/font&gt;" style="rounded=0;whiteSpace=wrap;html=1;" vertex="1" parent="1">
          <mxGeometry x="290" y="320" width="100" height="40" as="geometry" />
        </mxCell>
        <mxCell id="yqDNeAxjPuDPZAOG8qcz-61" value="&lt;font face=&quot;Times New Roman&quot;&gt;&lt;span style=&quot;font-size: 18px&quot;&gt;&lt;b&gt;L2CAP PayLoad&lt;/b&gt;&lt;/span&gt;&lt;/font&gt;" style="rounded=0;whiteSpace=wrap;html=1;" vertex="1" parent="1">
          <mxGeometry x="390" y="320" width="250" height="40" as="geometry" />
        </mxCell>
        <mxCell id="yqDNeAxjPuDPZAOG8qcz-62" value="ATT Layer" style="text;strokeColor=none;fillColor=none;html=1;fontSize=24;fontStyle=1;verticalAlign=middle;align=center;" vertex="1" parent="1">
          <mxGeometry x="800" y="440" width="100" height="40" as="geometry" />
        </mxCell>
        <mxCell id="yqDNeAxjPuDPZAOG8qcz-63" value="" style="endArrow=none;dashed=1;html=1;strokeWidth=2;entryX=0;entryY=1;entryDx=0;entryDy=0;" edge="1" parent="1" target="yqDNeAxjPuDPZAOG8qcz-47">
          <mxGeometry width="50" height="50" relative="1" as="geometry">
            <mxPoint x="690" y="200" as="sourcePoint" />
            <mxPoint x="740" y="230" as="targetPoint" />
          </mxGeometry>
        </mxCell>
        <mxCell id="yqDNeAxjPuDPZAOG8qcz-65" value="&lt;font face=&quot;Times New Roman&quot;&gt;&lt;span style=&quot;font-size: 18px ; font-weight: 400&quot;&gt;4&lt;/span&gt;&lt;/font&gt;" style="text;strokeColor=none;fillColor=none;html=1;fontSize=24;fontStyle=1;verticalAlign=middle;align=center;" vertex="1" parent="1">
          <mxGeometry x="250" y="780" width="60" height="20" as="geometry" />
        </mxCell>
        <mxCell id="yqDNeAxjPuDPZAOG8qcz-66" value="&lt;span style=&quot;font-weight: 400&quot;&gt;&lt;font style=&quot;font-size: 18px&quot; face=&quot;Times New Roman&quot;&gt;&amp;lt;=23&lt;/font&gt;&lt;/span&gt;" style="text;strokeColor=none;fillColor=none;html=1;fontSize=24;fontStyle=1;verticalAlign=middle;align=center;" vertex="1" parent="1">
          <mxGeometry x="450" y="780" width="60" height="20" as="geometry" />
        </mxCell>
        <mxCell id="yqDNeAxjPuDPZAOG8qcz-67" value="ATT Layer" style="text;strokeColor=none;fillColor=none;html=1;fontSize=24;fontStyle=1;verticalAlign=middle;align=center;" vertex="1" parent="1">
          <mxGeometry x="630" y="1105" width="100" height="40" as="geometry" />
        </mxCell>
        <mxCell id="yqDNeAxjPuDPZAOG8qcz-69" value="&lt;span style=&quot;font-weight: normal&quot;&gt;&lt;font style=&quot;font-size: 18px&quot; face=&quot;Times New Roman&quot;&gt;1&lt;/font&gt;&lt;/span&gt;" style="text;strokeColor=none;fillColor=none;html=1;fontSize=24;fontStyle=1;verticalAlign=middle;align=center;" vertex="1" parent="1">
          <mxGeometry x="230" y="1085" width="60" height="20" as="geometry" />
        </mxCell>
        <mxCell id="yqDNeAxjPuDPZAOG8qcz-70" value="&lt;span style=&quot;font-weight: 400&quot;&gt;&lt;font style=&quot;font-size: 18px&quot; face=&quot;Times New Roman&quot;&gt;&amp;lt;=22&lt;/font&gt;&lt;/span&gt;" style="text;strokeColor=none;fillColor=none;html=1;fontSize=24;fontStyle=1;verticalAlign=middle;align=center;" vertex="1" parent="1">
          <mxGeometry x="430" y="1085" width="60" height="20" as="geometry" />
        </mxCell>
        <mxCell id="yqDNeAxjPuDPZAOG8qcz-73" value="&lt;font face=&quot;Times New Roman&quot;&gt;&lt;span style=&quot;font-size: 18px&quot;&gt;&lt;b&gt;Link layer Header&lt;/b&gt;&lt;/span&gt;&lt;/font&gt;" style="rounded=0;whiteSpace=wrap;html=1;" vertex="1" parent="1">
          <mxGeometry x="150" y="200" width="120" height="40" as="geometry" />
        </mxCell>
        <mxCell id="yqDNeAxjPuDPZAOG8qcz-74" value="&lt;font face=&quot;Times New Roman&quot;&gt;&lt;span style=&quot;font-size: 18px&quot;&gt;&lt;b&gt;Payload&lt;/b&gt;&lt;/span&gt;&lt;/font&gt;" style="rounded=0;whiteSpace=wrap;html=1;" vertex="1" parent="1">
          <mxGeometry x="270" y="200" width="370" height="40" as="geometry" />
        </mxCell>
        <mxCell id="yqDNeAxjPuDPZAOG8qcz-76" value="&lt;font face=&quot;Times New Roman&quot;&gt;&lt;span style=&quot;font-size: 18px&quot;&gt;&lt;b&gt;MIC&lt;/b&gt;&lt;/span&gt;&lt;/font&gt;" style="rounded=0;whiteSpace=wrap;html=1;" vertex="1" parent="1">
          <mxGeometry x="640" y="200" width="50" height="40" as="geometry" />
        </mxCell>
        <mxCell id="yqDNeAxjPuDPZAOG8qcz-77" value="Link Layer" style="text;strokeColor=none;fillColor=none;html=1;fontSize=24;fontStyle=1;verticalAlign=middle;align=center;" vertex="1" parent="1">
          <mxGeometry x="790" y="200" width="100" height="40" as="geometry" />
        </mxCell>
        <mxCell id="yqDNeAxjPuDPZAOG8qcz-78" value="" style="endArrow=none;dashed=1;html=1;strokeWidth=2;entryX=0;entryY=1;entryDx=0;entryDy=0;exitX=1;exitY=0;exitDx=0;exitDy=0;" edge="1" parent="1" source="yqDNeAxjPuDPZAOG8qcz-61" target="yqDNeAxjPuDPZAOG8qcz-76">
          <mxGeometry width="50" height="50" relative="1" as="geometry">
            <mxPoint x="700" y="210" as="sourcePoint" />
            <mxPoint x="700" y="130" as="targetPoint" />
          </mxGeometry>
        </mxCell>
        <mxCell id="yqDNeAxjPuDPZAOG8qcz-79" value="" style="endArrow=none;dashed=1;html=1;entryX=0;entryY=0;entryDx=0;entryDy=0;strokeWidth=2;exitX=0;exitY=1;exitDx=0;exitDy=0;" edge="1" parent="1" source="yqDNeAxjPuDPZAOG8qcz-73" target="yqDNeAxjPuDPZAOG8qcz-60">
          <mxGeometry width="50" height="50" relative="1" as="geometry">
            <mxPoint x="160" y="210" as="sourcePoint" />
            <mxPoint x="190" y="130" as="targetPoint" />
          </mxGeometry>
        </mxCell>
        <mxCell id="yqDNeAxjPuDPZAOG8qcz-80" value="L2CAP Layer" style="text;strokeColor=none;fillColor=none;html=1;fontSize=24;fontStyle=1;verticalAlign=middle;align=center;" vertex="1" parent="1">
          <mxGeometry x="790" y="330" width="100" height="20" as="geometry" />
        </mxCell>
        <mxCell id="yqDNeAxjPuDPZAOG8qcz-82" value="&lt;font face=&quot;Times New Roman&quot;&gt;&lt;span style=&quot;font-size: 18px&quot;&gt;&lt;b&gt;Opcode&lt;/b&gt;&lt;/span&gt;&lt;/font&gt;" style="rounded=0;whiteSpace=wrap;html=1;" vertex="1" parent="1">
          <mxGeometry x="320" y="440" width="70" height="40" as="geometry" />
        </mxCell>
        <mxCell id="yqDNeAxjPuDPZAOG8qcz-83" value="&lt;font face=&quot;Times New Roman&quot; style=&quot;font-size: 18px&quot;&gt;&lt;b&gt;ATT Parameters&lt;/b&gt;&lt;/font&gt;" style="rounded=0;whiteSpace=wrap;html=1;" vertex="1" parent="1">
          <mxGeometry x="390" y="440" width="250" height="40" as="geometry" />
        </mxCell>
        <mxCell id="yqDNeAxjPuDPZAOG8qcz-84" value="" style="endArrow=none;dashed=1;html=1;strokeWidth=2;entryX=1;entryY=1;entryDx=0;entryDy=0;exitX=1;exitY=0;exitDx=0;exitDy=0;" edge="1" parent="1" source="yqDNeAxjPuDPZAOG8qcz-83" target="yqDNeAxjPuDPZAOG8qcz-61">
          <mxGeometry width="50" height="50" relative="1" as="geometry">
            <mxPoint x="650" y="330" as="sourcePoint" />
            <mxPoint x="650" y="250" as="targetPoint" />
          </mxGeometry>
        </mxCell>
        <mxCell id="yqDNeAxjPuDPZAOG8qcz-85" value="" style="endArrow=none;dashed=1;html=1;entryX=0;entryY=1;entryDx=0;entryDy=0;strokeWidth=2;exitX=0;exitY=0;exitDx=0;exitDy=0;" edge="1" parent="1" source="yqDNeAxjPuDPZAOG8qcz-82" target="yqDNeAxjPuDPZAOG8qcz-60">
          <mxGeometry width="50" height="50" relative="1" as="geometry">
            <mxPoint x="160" y="250" as="sourcePoint" />
            <mxPoint x="300" y="330" as="targetPoint" />
          </mxGeometry>
        </mxCell>
        <mxCell id="yqDNeAxjPuDPZAOG8qcz-86" value="" style="endArrow=none;dashed=1;html=1;entryX=0;entryY=1;entryDx=0;entryDy=0;strokeWidth=2;exitX=0;exitY=0;exitDx=0;exitDy=0;" edge="1" parent="1" source="yqDNeAxjPuDPZAOG8qcz-48" target="yqDNeAxjPuDPZAOG8qcz-82">
          <mxGeometry width="50" height="50" relative="1" as="geometry">
            <mxPoint x="320" y="550" as="sourcePoint" />
            <mxPoint x="300" y="370" as="targetPoint" />
          </mxGeometry>
        </mxCell>
        <mxCell id="yqDNeAxjPuDPZAOG8qcz-87" value="" style="endArrow=none;dashed=1;html=1;strokeWidth=2;entryX=1;entryY=1;entryDx=0;entryDy=0;exitX=1;exitY=0;exitDx=0;exitDy=0;" edge="1" parent="1">
          <mxGeometry width="50" height="50" relative="1" as="geometry">
            <mxPoint x="639" y="560" as="sourcePoint" />
            <mxPoint x="639" y="480" as="targetPoint" />
          </mxGeometry>
        </mxCell>
      </root>
    </mxGraphModel>
  </diagram>
</mxfile>
